<svg width="24" height="24" fill="none" xmlns="http://www.w3.org/2000/svg"><path d="M20.878 8.123a.587.587 0 00-.5-.258H7.046l-1.021-3.39a2.598 2.598 0 00-.373-.785 1.448 1.448 0 00-.5-.46 2.201 2.201 0 00-.462-.182A1.652 1.652 0 004.298 3h-2.69A.595.595 0 001 3.613c0 .102.026.201.079.297a.53.53 0 00.225.22c.098.051.2.077.305.077h2.69c.052 0 .1.006.146.019.046.013.108.067.187.163.079.095.144.239.196.43l3.475 12.45a.69.69 0 00.334.383.574.574 0 00.255.058h8.481a.636.636 0 00.364-.115.57.57 0 00.225-.287l3.004-8.62a.603.603 0 00-.088-.565zm-3.936 8.36H9.383L7.381 9.092h12.093l-2.532 7.393zm-1.237 2.453c-.432 0-.802.15-1.11.45-.307.3-.46.66-.46 1.082 0 .421.153.782.46 1.082.308.3.678.45 1.11.45.432 0 .801-.15 1.109-.45.308-.3.461-.66.461-1.082 0-.422-.153-.782-.461-1.082-.308-.3-.677-.45-1.11-.45zm-5.655 0c-.287 0-.552.07-.795.21-.242.14-.431.326-.569.556-.137.23-.206.485-.206.766 0 .421.154.782.461 1.082.308.3.678.45 1.11.45.431 0 .801-.15 1.109-.45.307-.3.461-.66.461-1.082 0-.102-.01-.205-.03-.307a1.343 1.343 0 00-.235-.546 1.67 1.67 0 00-.697-.565 1.429 1.429 0 00-.294-.086 1.749 1.749 0 00-.315-.028z" fill="#000"/></svg>