<svg width="130" height="24" fill="none" xmlns="http://www.w3.org/2000/svg"><path fill-rule="evenodd" clip-rule="evenodd" d="M0 0h19.094v4.816H0V0zm0 18.662h19.094v4.816H0v-4.816zm16.707-6.02H2.387v4.214h14.32v-4.214zm-14.32-6.02h14.32v4.214H2.387V6.622zM35.613 0c6.98 0 11.898 5.137 11.898 11.72 0 2.648-.952 4.895-2.221 6.822l2.38 1.926L44.496 24l-2.3-2.247c-1.825 1.203-4.046 1.926-6.505 1.926-7.059 0-11.897-5.298-11.897-12.04C23.795 5.137 28.633 0 35.613 0zm0 18.622c.793 0 1.745-.16 2.459-.482l-2.3-2.087 3.093-3.531 2.221 2.247a7.372 7.372 0 00.635-2.97c0-3.772-2.618-6.582-6.108-6.582-3.57 0-6.107 2.81-6.107 6.582 0 3.853 2.538 6.823 6.107 6.823zM55.76.402h-5.553v22.956h5.553v-9.311h2.3l4.759 9.31h6.186l-6.424-11.879v-.08L68.688.4H62.74l-4.68 8.83h-2.3V.4zm22.526 12.682h.475v-.322c0-1.364-1.11-1.846-2.3-1.846-1.586 0-3.172.723-4.52 1.606l-1.904-3.933c1.348-1.044 4.203-2.168 6.9-2.168 4.521 0 7.297 2.569 7.297 6.743v10.194h-4.997v-.963c0-.562.08-1.044.08-1.044h-.08c-1.11 1.525-3.014 2.408-4.838 2.408-3.173 0-5.314-2.167-5.314-5.057-.08-4.414 5.155-5.618 9.2-5.618zm-2.3 6.501c1.586 0 2.775-1.605 2.775-2.89v-.481h-.475c-1.666 0-3.808.482-3.808 1.926 0 .803.556 1.445 1.507 1.445zM91.768.401h-5.552v23.117h5.076v-1.605h.08c1.11 1.284 2.934 1.926 4.6 1.926 4.363 0 7.615-3.451 7.615-8.668 0-5.138-2.935-8.67-7.377-8.67-1.665 0-3.49.643-4.442 1.766h-.079s.08-.642.08-1.444V.4zm6.187 14.85c0 2.488-1.428 3.933-3.173 3.933-2.141 0-3.172-2.007-3.172-3.933 0-2.89 1.507-4.094 3.172-4.094 1.904 0 3.173 1.605 3.173 4.094zm15.308-8.83c4.839 0 7.535 3.372 7.535 8.027 0 .499-.062.997-.132 1.552l-.026.214h-10.31c.396 2.007 2.062 2.97 3.807 2.97 1.586 0 3.172-.803 4.521-1.686l2.062 3.853c-1.745 1.525-4.442 2.408-6.98 2.408-5.869 0-8.963-4.254-8.963-8.669 0-4.816 3.252-8.669 8.487-8.669zm2.142 6.582c0-1.364-.873-2.488-2.221-2.488-1.586 0-2.38 1.124-2.618 2.488h4.839zM127.858.401h-5.552v16.856c0 5.539 3.094 6.261 6.028 6.261.409 0 .766-.026 1.071-.049a8.58 8.58 0 01.595-.03v-4.817h-.635c-1.189 0-1.507-.482-1.507-2.087V.401z" fill="#75CDB3"/></svg>