<svg width="390" height="72" fill="none" xmlns="http://www.w3.org/2000/svg"><path fill-rule="evenodd" clip-rule="evenodd" d="M0 0h57.283v14.448H0V0zm0 55.987h57.283v14.448H0V55.987zm50.122-18.06H7.16v12.642h42.962V37.925zM7.16 19.866h42.962v12.641H7.16V19.866z" fill="#75CDB3"/><path d="M106.839 0c20.94 0 35.693 15.411 35.693 35.157 0 7.947-2.856 14.69-6.663 20.468l7.139 5.78L133.49 72l-6.901-6.743c-5.473 3.613-12.135 5.78-19.512 5.78-21.177 0-35.692-15.893-35.692-36.12C71.385 15.41 85.9 0 106.839 0zm0 55.866c2.38 0 5.235-.481 7.377-1.445l-6.901-6.26 9.28-10.596 6.663 6.743a22.113 22.113 0 001.903-8.91c0-11.318-7.852-19.746-18.322-19.746-10.707 0-18.322 8.428-18.322 19.746 0 11.558 7.615 20.468 18.322 20.468zm43.783-54.662h16.657v26.488h6.9l14.039-26.488h17.846l-18.322 32.99v.24l19.274 35.64h-18.56L174.179 42.14h-6.9v27.933h-16.657V1.203zm84.234 38.046h1.428v-.962c0-4.094-3.331-5.539-6.901-5.539-4.759 0-9.518 2.167-13.563 4.816l-5.71-11.8c4.045-3.13 12.611-6.501 20.701-6.501 13.563 0 21.892 7.706 21.892 20.228v30.581h-14.991v-2.89c0-1.685.238-3.13.238-3.13h-.238c-3.332 4.576-9.042 7.224-14.515 7.224-9.518 0-15.943-6.501-15.943-15.17-.238-13.244 15.467-16.856 27.602-16.856zm-6.9 19.506c4.759 0 8.328-4.816 8.328-8.67v-1.444h-1.428c-4.997 0-11.421 1.445-11.421 5.78 0 2.407 1.665 4.334 4.521 4.334zm30.933-57.552h16.419v19.264c0 2.408-.238 4.334-.238 4.334h.238c2.855-3.37 8.328-5.297 13.325-5.297 13.325 0 22.129 10.595 22.129 26.006 0 15.653-9.756 26.007-22.843 26.007-4.997 0-10.47-1.926-13.801-5.779h-.238v4.816h-15.229V1.204h.238zm25.461 56.348c5.235 0 9.518-4.335 9.518-11.8 0-7.465-3.807-12.28-9.518-12.28-4.997 0-9.518 3.611-9.518 12.28 0 5.78 3.093 11.8 9.518 11.8zm55.443-38.288c14.515 0 22.605 10.114 22.605 24.08 0 1.686-.238 3.371-.476 5.298h-30.933c1.189 6.02 6.186 8.91 11.421 8.91 4.759 0 9.518-2.408 13.563-5.057l6.187 11.558c-5.235 4.576-13.325 7.224-20.94 7.224-17.608 0-26.888-12.762-26.888-26.006 0-14.448 9.756-26.007 25.461-26.007zm6.424 19.746c0-4.094-2.617-7.465-6.662-7.465-4.759 0-7.139 3.371-7.853 7.465h14.515zm20.94-37.806h16.418v48.401c0 4.816.952 6.261 4.522 6.261H390v14.448c-1.19 0-2.855.241-4.997.241-8.804 0-18.084-2.167-18.084-18.783V1.204h.238z" fill="#000"/></svg>